<svg width="151" height="151" viewBox="0 0 151 151" fill="none" xmlns="http://www.w3.org/2000/svg">
<path xmlns="http://www.w3.org/2000/svg" fill="#000" d="m75 0 75.784 75.784L76 150.568.216 74.784z"/>
<path xmlns="http://www.w3.org/2000/svg" d="M157.565 61.243V64.3c0 .282.141.517.329.611h-1.034c.235-.094.329-.329.329-.611v-3.575l-.423-.611h.846l2.305 3.245v-2.634c0-.282-.141-.517-.376-.611h1.081c-.235.094-.329.329-.329.611v4.28l-2.728-3.762zM92.517 39.042l-5.268-5.267 7.196-7.243-4.186-4.186-18.25 18.249 4.187 4.186 7.149-7.15 5.315 5.315-7.15 7.15 4.187 4.186 18.249-18.25-4.186-4.186-7.243 7.196zM102.252 62.983l14.298-14.298-4.186-4.187-18.249 18.203 10.348 10.347 3.904-3.95-6.115-6.115zM106.071 38.164 87.813 56.422l4.19 4.19 18.259-18.258-4.191-4.19zM56.535 27.19l-4.891 4.891 3.763 10.489-10.912-3.292-5.08 5.032 18.061 4.939 3.387 10.16 4.844-4.845-9.077-27.092-.095-.282zM34.617 49.155 45.86 60.396 27.044 56.68 23 60.725l18.296 18.202 3.904-3.903L33.96 63.782l18.813 3.716 4.046-4.092L38.52 45.204l-3.904 3.95zM66.836 25.308l2.775 2.776c3.763 3.762 9.266 3.762 13.075-.047 3.81-3.81 3.81-9.266.047-13.076L75.725 8 57.617 26.108l4.186 4.186 5.033-4.986zm9.689-9.688 2.116 2.116c1.694 1.693 1.6 4.233-.235 6.02-1.834 1.835-4.374 1.929-6.02.236l-2.117-2.117 6.256-6.255zM59.123 110.957l5.267 5.315-7.196 7.197 4.186 4.186 18.25-18.25-4.187-4.186-7.149 7.149-5.315-5.267 7.15-7.197-4.186-4.186-18.25 18.25 4.186 4.186 7.244-7.197zM49.386 87.017l-14.298 14.346 4.186 4.186 18.25-18.25-10.348-10.347-3.904 3.95 6.114 6.115zM59.624 89.389l-18.259 18.259 4.19 4.19 18.26-18.258-4.191-4.191zM95.103 122.81l4.892-4.891-3.763-10.442 10.912 3.292 5.08-5.079-18.061-4.892-3.387-10.16-4.844 4.845 9.077 27.092.094.235zM117.021 100.892 105.78 89.651l18.767 3.669 4.092-4.045-18.296-18.203-3.951 3.951 11.241 11.242-18.767-3.716-4.045 4.045 18.297 18.202 3.903-3.904zM84.803 124.691l-2.775-2.775c-3.763-3.762-9.266-3.762-13.076.047-3.81 3.81-3.857 9.266-.047 13.076L75.866 142l18.108-18.108-4.186-4.186-4.985 4.985zm-9.69 9.689-2.116-2.116c-1.693-1.693-1.599-4.233.235-6.02 1.835-1.835 4.374-1.929 6.02-.236l2.117 2.117-6.255 6.255z" fill="#fff"/>
</svg>
